<svg width="244" height="217" viewBox="0 0 244 217" fill="none" xmlns="http://www.w3.org/2000/svg">
<path d="M48.8977 147.306L48.8977 153.48L26.6039 149.638L26.6039 172.985L48.8977 176.827L48.8977 183L0.6662 174.692L0.6662 168.519L21.4031 172.098L21.4031 148.784L0.666199 145.205L0.666199 138.999L48.8977 147.306Z" fill="white"/>
<path d="M48.8977 129.417L48.8977 135.557L0.666198 127.25L0.666198 121.109L48.8977 129.417Z" fill="white"/>
<path d="M42.5375 82.0729C44.8121 83.6709 46.5678 86.0023 47.8045 89.0671C49.0191 92.11 49.6044 95.5907 49.5602 99.5092C49.4939 102.64 48.7541 105.376 47.3407 107.718C45.9274 110.061 43.9067 111.9 41.2787 113.235C38.6286 114.57 35.6252 115.337 32.2684 115.534C29.6404 115.687 26.0849 115.369 21.6018 114.581C17.1188 113.771 13.243 112.37 9.97461 110.378C6.70617 108.386 4.21068 105.901 2.48813 102.924C0.765575 99.9251 -0.0625753 96.4992 0.0036765 92.6463C0.0920123 88.2024 1.42809 84.667 4.01192 82.04C6.57367 79.3912 10.1844 77.8807 14.8441 77.5086L14.8441 83.6162C11.7965 83.857 9.45563 84.7655 7.82141 86.3417C6.1872 87.9178 5.32592 90.096 5.23759 92.8762C5.083 96.9917 6.57367 100.44 9.7096 103.22C12.8455 105.978 17.428 107.795 23.4569 108.671L28.0945 109.295L30.6121 109.393C34.9627 109.393 38.3305 108.506 40.7155 106.733C43.0785 104.96 44.2821 102.475 44.3263 99.2793C44.4367 94.6603 43.2883 90.9935 40.8812 88.279L30.049 86.3088L30.049 97.0793L24.8813 96.1599L24.8813 79.3474L42.5375 82.0729Z" fill="white"/>
<path d="M48.8977 66.2521L48.8977 72.3926L0.666195 64.0849L0.666195 57.9444L48.8977 66.2521Z" fill="white"/>
<path d="M36.3098 26.1321L36.3098 45.5058L48.8977 52.0404L48.8977 58.6406L0.666194 32.6667L0.666194 27.2486L48.8977 17.7916L48.8977 23.8664L36.3098 26.1321ZM31.0759 42.7804L31.0759 27.0516L8.58331 31.0248L31.0759 42.7804Z" fill="white"/>
<path d="M206.402 33.5447L226.208 172.46L206.402 184.271H169.377V118.904H96.7542L112 179L96.7542 184.271H59.7291V25.9034L73.7031 14H95.5L96.7542 96.4212H169.377V25.9034L187.874 13.9792L206.402 33.5447Z" fill="#DBDBDB"/>
<path d="M73.7888 179.188L59.7291 184.271H96.7719L112 179.188H73.7888Z" fill="#CECECE"/>
<path d="M226.208 179.188L206.55 184.271H169.374L187.717 179.188H226.208Z" fill="#CECECE"/>
<path d="M190 110.5L169.5 119H111.5C111.5 119 111.842 113.465 111.562 106.021" fill="#CECECE"/>
<path d="M226.208 13.9792V179.188H187.712V111.464H112.112V179.188H73.7083V13.9792H112.204V79.1227H187.712V13.9792H226.208Z" fill="white"/>
</svg>
